<svg xmlns="http://www.w3.org/2000/svg" version="1.1" xmlns:xlink="http://www.w3.org/1999/xlink" width="200" height="200"><svg xmlns="http://www.w3.org/2000/svg" version="1.1" xmlns:xlink="http://www.w3.org/1999/xlink" viewBox="0 0 200 200"><rect width="200" height="200" fill="url('#gradient')"></rect><defs><linearGradient id="SvgjsLinearGradient1001" gradientTransform="rotate(45 0.5 0.5)"><stop offset="0%" stop-color="#f7f9f8"></stop><stop offset="100%" stop-color="#fd4638"></stop></linearGradient></defs><g><g fill="#14956d" transform="matrix(3.222941073614268,0,0,3.222941073614268,6.546801712425847,123.85210684676086)" stroke="#55ae94" stroke-width="0.2"><path d="M6.69-4.82L4.50-4.82L4.50 0L1.07 0L1.07-14.22L6.75-14.22Q8.38-14.22 9.63-13.62Q10.89-13.02 11.58-11.91Q12.27-10.80 12.27-9.39L12.27-9.39Q12.27-7.31 10.78-6.07Q9.29-4.82 6.69-4.82L6.69-4.82ZM4.50-11.57L4.50-7.47L6.75-7.47Q7.74-7.47 8.27-7.97Q8.79-8.47 8.79-9.38L8.79-9.38Q8.79-10.37 8.25-10.97Q7.71-11.56 6.79-11.57L6.79-11.57L4.50-11.57ZM17.41-15L17.41 0L14.11 0L14.11-15L17.41-15ZM28.68 0L25.39 0Q25.21-0.32 25.08-0.95L25.08-0.95Q24.17 0.20 22.54 0.20L22.54 0.20Q21.04 0.20 20-0.71Q18.96-1.61 18.96-2.98L18.96-2.98Q18.96-4.70 20.22-5.58Q21.49-6.46 23.92-6.46L23.92-6.46L24.93-6.46L24.93-7.01Q24.93-8.47 23.67-8.47L23.67-8.47Q22.50-8.47 22.50-7.31L22.50-7.31L19.21-7.31Q19.21-8.85 20.51-9.80Q21.82-10.76 23.84-10.76Q25.86-10.76 27.03-9.78Q28.20-8.79 28.23-7.07L28.23-7.07L28.23-2.39Q28.25-0.94 28.68-0.17L28.68-0.17L28.68 0ZM23.33-2.15L23.33-2.15Q23.95-2.15 24.35-2.41Q24.76-2.68 24.93-3.01L24.93-3.01L24.93-4.70L23.97-4.70Q22.26-4.70 22.26-3.15L22.26-3.15Q22.26-2.71 22.56-2.43Q22.86-2.15 23.33-2.15ZM29.99-10.57L33.08-10.57L33.18-9.33Q34.28-10.76 36.20-10.76L36.20-10.76Q37.85-10.76 38.67-9.78Q39.48-8.79 39.51-6.81L39.51-6.81L39.51 0L36.21 0L36.21-6.67Q36.21-7.47 35.89-7.85Q35.57-8.22 34.72-8.22L34.72-8.22Q33.75-8.22 33.28-7.46L33.28-7.46L33.28 0L29.99 0L29.99-10.57ZM41.88-13.19L45.17-13.19L45.17-10.57L46.90-10.57L46.90-8.28L45.17-8.28L45.17-3.45Q45.17-2.85 45.38-2.62Q45.60-2.38 46.23-2.38L46.23-2.38Q46.72-2.38 47.05-2.44L47.05-2.44L47.05-0.09Q46.16 0.20 45.20 0.20L45.20 0.20Q43.50 0.20 42.69-0.61Q41.88-1.41 41.88-3.04L41.88-3.04L41.88-8.28L40.53-8.28L40.53-10.57L41.88-10.57L41.88-13.19ZM53.73-2.97L53.73-2.97Q53.73-3.39 53.29-3.64Q52.85-3.90 51.62-4.17Q50.39-4.44 49.59-4.89Q48.79-5.33 48.37-5.97Q47.95-6.60 47.95-7.42L47.95-7.42Q47.95-8.88 49.15-9.82Q50.35-10.76 52.29-10.76L52.29-10.76Q54.38-10.76 55.65-9.81Q56.92-8.87 56.92-7.32L56.92-7.32L53.62-7.32Q53.62-8.59 52.29-8.59L52.29-8.59Q51.77-8.59 51.42-8.31Q51.06-8.02 51.06-7.59L51.06-7.59Q51.06-7.15 51.49-6.88Q51.92-6.60 52.87-6.43Q53.81-6.25 54.52-6.01L54.52-6.01Q56.90-5.19 56.90-3.07L56.90-3.07Q56.90-1.62 55.62-0.71Q54.34 0.20 52.29 0.20L52.29 0.20Q50.94 0.20 49.87-0.29Q48.81-0.78 48.21-1.62Q47.62-2.46 47.62-3.39L47.62-3.39L50.69-3.39Q50.71-2.66 51.18-2.32Q51.65-1.98 52.38-1.98L52.38-1.98Q53.06-1.98 53.39-2.26Q53.73-2.53 53.73-2.97Z"></path></g></g></svg><style>@media (prefers-color-scheme: light) { :root { filter: none; } }
@media (prefers-color-scheme: dark) { :root { filter: none; } }
</style></svg>